<?xml version="1.0" encoding="UTF-8" standalone="no"?>
<!-- Created with Inkscape (http://www.inkscape.org/) -->

<svg
   xmlns:dc="http://purl.org/dc/elements/1.1/"
   xmlns:cc="http://creativecommons.org/ns#"
   xmlns:rdf="http://www.w3.org/1999/02/22-rdf-syntax-ns#"
   xmlns:svg="http://www.w3.org/2000/svg"
   xmlns="http://www.w3.org/2000/svg"
   xmlns:xlink="http://www.w3.org/1999/xlink"
   xmlns:sodipodi="http://sodipodi.sourceforge.net/DTD/sodipodi-0.dtd"
   xmlns:inkscape="http://www.inkscape.org/namespaces/inkscape"
   width="220"
   height="250"
   id="svg2"
   version="1.1"
   inkscape:version="0.48.4 r9939"
   sodipodi:docname="fileflow.svg">
  <defs
     id="defs4">
    <radialGradient
       xlink:href="#linearGradient5992"
       r="33.15625"
       inkscape:collect="always"
       id="radialGradient6000"
       gradientUnits="userSpaceOnUse"
       gradientTransform="matrix(1,0,0,1.693685,0,-197.9515)"
       fy="285.36218"
       fx="495.5"
       cy="285.36218"
       cx="495.5" />
    <linearGradient
       y2="187.57059"
       y1="225.4008"
       xlink:href="#linearGradient5963"
       x2="458.91232"
       x1="383.95898"
       inkscape:collect="always"
       id="linearGradient5969"
       gradientUnits="userSpaceOnUse" />
    <linearGradient
       id="linearGradient3586">
      <stop
         style="stop-color:#000000;stop-opacity:1.0000000;"
         offset="0.0000000"
         id="stop3588" />
      <stop
         style="stop-color:#ffffff;stop-opacity:0;"
         offset="1"
         id="stop3590" />
    </linearGradient>
    <linearGradient
       inkscape:collect="always"
       id="linearGradient5963">
      <stop
         style="stop-color:#ffffff;stop-opacity:1;"
         offset="0"
         id="stop5965" />
      <stop
         style="stop-color:#ffffff;stop-opacity:0;"
         offset="1"
         id="stop5967" />
    </linearGradient>
    <linearGradient
       inkscape:collect="always"
       id="linearGradient5992">
      <stop
         style="stop-color:#ffffff;stop-opacity:1;"
         offset="0"
         id="stop5994" />
      <stop
         style="stop-color:#ffffff;stop-opacity:0;"
         offset="1"
         id="stop5996" />
    </linearGradient>
    <linearGradient
       y2="2.72773306e-8"
       y1="2.72773306e-8"
       xlink:href="#linearGradient48"
       x2="1"
       x1="-3.44118014e-8"
       id="linearGradient1132" />
    <linearGradient
       y2="-4.15234389e-8"
       y1="-4.15234389e-8"
       xlink:href="#linearGradient48"
       x2="1"
       x1="-5.52663018e-8"
       id="linearGradient1131" />
    <linearGradient
       y2="1.37658901e-7"
       y1="1.37658901e-7"
       xlink:href="#linearGradient48"
       x2="1"
       x1="5.85739501e-9"
       id="linearGradient1128" />
    <radialGradient
       xlink:href="#linearGradient580"
       r="0.5"
       id="radialGradient579"
       fy="0.5"
       fx="0.5"
       cy="0.5"
       cx="0.5" />
    <linearGradient
       y2="3.64054813e-8"
       y1="3.64054813e-8"
       xlink:href="#linearGradient48"
       x2="1"
       x1="-1.49062593e-8"
       id="linearGradient33" />
    <linearGradient
       y2="0.49218801"
       y1="0.515625"
       xlink:href="#linearGradient48"
       x2="0.74235803"
       x1="0.10917"
       id="linearGradient32" />
    <linearGradient
       y2="3.2877483e-9"
       y1="3.2877483e-9"
       xlink:href="#linearGradient53"
       x2="1"
       x1="-1.87901605e-9"
       id="linearGradient52" />
    <linearGradient
       xlink:href="#linearGradient53"
       id="linearGradient51" />
    <linearGradient
       id="linearGradient48">
      <stop
         style="stop-color:#005d00;stop-opacity:1;"
         offset="0"
         id="stop49" />
      <stop
         style="stop-color:#ffff7f;stop-opacity:1;"
         offset="1"
         id="stop50" />
    </linearGradient>
    <linearGradient
       id="linearGradient53">
      <stop
         style="stop-color:#faff00;stop-opacity:1;"
         offset="0"
         id="stop54" />
      <stop
         style="stop-color:#ffa200;stop-opacity:1;"
         offset="1"
         id="stop55" />
    </linearGradient>
    <linearGradient
       id="linearGradient580">
      <stop
         style="stop-color:#ffff8a;stop-opacity:0.6667;"
         offset="0"
         id="stop581" />
      <stop
         style="stop-color:#000000;stop-opacity:0.3961;"
         offset="1"
         id="stop582" />
    </linearGradient>
  </defs>
  <sodipodi:namedview
     id="base"
     pagecolor="#ffffff"
     bordercolor="#666666"
     borderopacity="1.0"
     inkscape:pageopacity="0.0"
     inkscape:pageshadow="2"
     inkscape:zoom="0.7"
     inkscape:cx="375"
     inkscape:cy="246.02302"
     inkscape:document-units="px"
     inkscape:current-layer="layer1"
     showgrid="false"
     inkscape:window-width="1366"
     inkscape:window-height="706"
     inkscape:window-x="-8"
     inkscape:window-y="-8"
     inkscape:window-maximized="1" />
  <metadata
     id="metadata7">
    <rdf:RDF>
      <cc:Work
         rdf:about="">
        <dc:format>image/svg+xml</dc:format>
        <dc:type
           rdf:resource="http://purl.org/dc/dcmitype/StillImage" />
        <dc:title></dc:title>
      </cc:Work>
    </rdf:RDF>
  </metadata>
  <g
     inkscape:label="Layer 1"
     inkscape:groupmode="layer"
     id="layer1"
     transform="translate(0,-802.36218)">
    <g
       id="g17613"
       transform="matrix(0.13009748,0,0,0.15999311,6.1142017,820.73778)">
      <path
         style="font-size:12px;fill:#ffb200;fill-opacity:1;fill-rule:evenodd;stroke:#8b0000;stroke-width:12.6996603;stroke-opacity:1"
         sodipodi:nodetypes="cccccccccc"
         id="path629"
         d="m 269.25,145.0625 c 25.9375,24.1875 72.9375,83.25 87.75,100.75 15.5625,-16.5 59.3125,-88.75 67.3125,-102.125 -9.9375,-0.375 -29.0625,-0.25 -55.125,0.1875 C 334.9375,21.06251 242.8125,11.12499 217.5,11.12499 86.625,12.68749 18.0625,130.5625 20.875,178.75 c 18.8125,-0.25 104.6875,-1.5 131.6875,-2.5625 6.875,-90.50002 59.1875,-99.625 97.875,-101.93751 30,-0.81249 68.4375,24.12503 77.625,69.68751 1.9375,0.1875 -40.9375,1 -58.8125,1.125 z"
         inkscape:connector-curvature="0" />
      <path
         style="font-size:12px;fill:#ffff00;fill-rule:evenodd;stroke:#275a00;stroke-width:12.4028101;stroke-opacity:1"
         id="path632"
         d="m 164.7978,288.5 c -23.7559,-22.4375 -65.92119,-77.1875 -79.28771,-93.375 -16.10058,15.3125 -62.94416,82.25 -71.51088,94.6875 9.53883,0.3125 27.64439,0.25 52.67623,-0.1875 C 102.036,404.875 191.2879,429 219.1145,429 346.2787,427.4375 432.7358,308.5 430.0017,260.375 c -42.0437,0.1875 -95.8744,1.5 -149.7657,2.5625 -6.6833,90.4375 -53.5876,104.875 -87.2469,105.0625 -28.252,0.75 -60.3317,-33.6875 -79.9561,-78.875 19.746,-0.3125 37.3047,-0.5 51.7648,-0.625 z"
         inkscape:connector-curvature="0" />
    </g>
    <g
       transform="matrix(0.13009748,0,0,0.15999311,71.828487,879.3092)"
       id="g17617">
      <path
         inkscape:connector-curvature="0"
         d="m 269.25,145.0625 c 25.9375,24.1875 72.9375,83.25 87.75,100.75 15.5625,-16.5 59.3125,-88.75 67.3125,-102.125 -9.9375,-0.375 -29.0625,-0.25 -55.125,0.1875 C 334.9375,21.06251 242.8125,11.12499 217.5,11.12499 86.625,12.68749 18.0625,130.5625 20.875,178.75 c 18.8125,-0.25 104.6875,-1.5 131.6875,-2.5625 6.875,-90.50002 59.1875,-99.625 97.875,-101.93751 30,-0.81249 68.4375,24.12503 77.625,69.68751 1.9375,0.1875 -40.9375,1 -58.8125,1.125 z"
         id="path17619"
         sodipodi:nodetypes="cccccccccc"
         style="font-size:12px;fill:#ffb200;fill-opacity:1;fill-rule:evenodd;stroke:#8b0000;stroke-width:12.6996603;stroke-opacity:1" />
      <path
         inkscape:connector-curvature="0"
         d="m 164.7978,288.5 c -23.7559,-22.4375 -65.92119,-77.1875 -79.28771,-93.375 -16.10058,15.3125 -62.94416,82.25 -71.51088,94.6875 9.53883,0.3125 27.64439,0.25 52.67623,-0.1875 C 102.036,404.875 191.2879,429 219.1145,429 346.2787,427.4375 432.7358,308.5 430.0017,260.375 c -42.0437,0.1875 -95.8744,1.5 -149.7657,2.5625 -6.6833,90.4375 -53.5876,104.875 -87.2469,105.0625 -28.252,0.75 -60.3317,-33.6875 -79.9561,-78.875 19.746,-0.3125 37.3047,-0.5 51.7648,-0.625 z"
         id="path17621"
         style="font-size:12px;fill:#ffff00;fill-rule:evenodd;stroke:#275a00;stroke-width:12.4028101;stroke-opacity:1" />
    </g>
    <g
       id="g17623"
       transform="matrix(0.13009748,0,0,0.15999311,134.68563,935.02349)">
      <path
         style="font-size:12px;fill:#ffb200;fill-opacity:1;fill-rule:evenodd;stroke:#8b0000;stroke-width:12.6996603;stroke-opacity:1"
         sodipodi:nodetypes="cccccccccc"
         id="path17625"
         d="m 269.25,145.0625 c 25.9375,24.1875 72.9375,83.25 87.75,100.75 15.5625,-16.5 59.3125,-88.75 67.3125,-102.125 -9.9375,-0.375 -29.0625,-0.25 -55.125,0.1875 C 334.9375,21.06251 242.8125,11.12499 217.5,11.12499 86.625,12.68749 18.0625,130.5625 20.875,178.75 c 18.8125,-0.25 104.6875,-1.5 131.6875,-2.5625 6.875,-90.50002 59.1875,-99.625 97.875,-101.93751 30,-0.81249 68.4375,24.12503 77.625,69.68751 1.9375,0.1875 -40.9375,1 -58.8125,1.125 z"
         inkscape:connector-curvature="0" />
      <path
         style="font-size:12px;fill:#ffff00;fill-rule:evenodd;stroke:#275a00;stroke-width:12.4028101;stroke-opacity:1"
         id="path17627"
         d="m 164.7978,288.5 c -23.7559,-22.4375 -65.92119,-77.1875 -79.28771,-93.375 -16.10058,15.3125 -62.94416,82.25 -71.51088,94.6875 9.53883,0.3125 27.64439,0.25 52.67623,-0.1875 C 102.036,404.875 191.2879,429 219.1145,429 346.2787,427.4375 432.7358,308.5 430.0017,260.375 c -42.0437,0.1875 -95.8744,1.5 -149.7657,2.5625 -6.6833,90.4375 -53.5876,104.875 -87.2469,105.0625 -28.252,0.75 -60.3317,-33.6875 -79.9561,-78.875 19.746,-0.3125 37.3047,-0.5 51.7648,-0.625 z"
         inkscape:connector-curvature="0" />
    </g>
  </g>
</svg>
