<?xml version="1.0" encoding="UTF-8" standalone="no"?>
<!-- Created with Inkscape (http://www.inkscape.org/) -->

<svg
   xmlns:dc="http://purl.org/dc/elements/1.1/"
   xmlns:cc="http://creativecommons.org/ns#"
   xmlns:rdf="http://www.w3.org/1999/02/22-rdf-syntax-ns#"
   xmlns:svg="http://www.w3.org/2000/svg"
   xmlns="http://www.w3.org/2000/svg"
   xmlns:xlink="http://www.w3.org/1999/xlink"
   xmlns:sodipodi="http://sodipodi.sourceforge.net/DTD/sodipodi-0.dtd"
   xmlns:inkscape="http://www.inkscape.org/namespaces/inkscape"
   width="220"
   height="100"
   id="svg2"
   version="1.1"
   inkscape:version="0.48.4 r9939"
   sodipodi:docname="linux.svg">
  <defs
     id="defs4">
    <radialGradient
       xlink:href="#linearGradient5992"
       r="33.15625"
       inkscape:collect="always"
       id="radialGradient6000"
       gradientUnits="userSpaceOnUse"
       gradientTransform="matrix(1,0,0,1.693685,0,-197.9515)"
       fy="285.36218"
       fx="495.5"
       cy="285.36218"
       cx="495.5" />
    <linearGradient
       y2="187.57059"
       y1="225.4008"
       xlink:href="#linearGradient5963"
       x2="458.91232"
       x1="383.95898"
       inkscape:collect="always"
       id="linearGradient5969"
       gradientUnits="userSpaceOnUse" />
    <linearGradient
       id="linearGradient3586">
      <stop
         style="stop-color:#000000;stop-opacity:1.0000000;"
         offset="0.0000000"
         id="stop3588" />
      <stop
         style="stop-color:#ffffff;stop-opacity:0;"
         offset="1"
         id="stop3590" />
    </linearGradient>
    <linearGradient
       inkscape:collect="always"
       id="linearGradient5963">
      <stop
         style="stop-color:#ffffff;stop-opacity:1;"
         offset="0"
         id="stop5965" />
      <stop
         style="stop-color:#ffffff;stop-opacity:0;"
         offset="1"
         id="stop5967" />
    </linearGradient>
    <linearGradient
       inkscape:collect="always"
       id="linearGradient5992">
      <stop
         style="stop-color:#ffffff;stop-opacity:1;"
         offset="0"
         id="stop5994" />
      <stop
         style="stop-color:#ffffff;stop-opacity:0;"
         offset="1"
         id="stop5996" />
    </linearGradient>
    <linearGradient
       y2="2.7277331e-008"
       y1="2.7277331e-008"
       xlink:href="#linearGradient48"
       x2="1"
       x1="-3.4411801e-008"
       id="linearGradient1132" />
    <linearGradient
       y2="-4.1523439e-008"
       y1="-4.1523439e-008"
       xlink:href="#linearGradient48"
       x2="1"
       x1="-5.5266302e-008"
       id="linearGradient1131" />
    <linearGradient
       y2="1.376589e-007"
       y1="1.376589e-007"
       xlink:href="#linearGradient48"
       x2="1"
       x1="5.857395e-009"
       id="linearGradient1128" />
    <radialGradient
       xlink:href="#linearGradient580"
       r="0.5"
       id="radialGradient579"
       fy="0.5"
       fx="0.5"
       cy="0.5"
       cx="0.5" />
    <linearGradient
       y2="3.6405481e-008"
       y1="3.6405481e-008"
       xlink:href="#linearGradient48"
       x2="1"
       x1="-1.4906259e-008"
       id="linearGradient33" />
    <linearGradient
       y2="0.49218801"
       y1="0.515625"
       xlink:href="#linearGradient48"
       x2="0.74235803"
       x1="0.10917"
       id="linearGradient32" />
    <linearGradient
       y2="3.2877483e-009"
       y1="3.2877483e-009"
       xlink:href="#linearGradient53"
       x2="1"
       x1="-1.8790161e-009"
       id="linearGradient52" />
    <linearGradient
       xlink:href="#linearGradient53"
       id="linearGradient51" />
    <linearGradient
       id="linearGradient48">
      <stop
         style="stop-color:#005d00;stop-opacity:1;"
         offset="0"
         id="stop49" />
      <stop
         style="stop-color:#ffff7f;stop-opacity:1;"
         offset="1"
         id="stop50" />
    </linearGradient>
    <linearGradient
       id="linearGradient53">
      <stop
         style="stop-color:#faff00;stop-opacity:1;"
         offset="0"
         id="stop54" />
      <stop
         style="stop-color:#ffa200;stop-opacity:1;"
         offset="1"
         id="stop55" />
    </linearGradient>
    <linearGradient
       id="linearGradient580">
      <stop
         style="stop-color:#ffff8a;stop-opacity:0.6667;"
         offset="0"
         id="stop581" />
      <stop
         style="stop-color:#000000;stop-opacity:0.3961;"
         offset="1"
         id="stop582" />
    </linearGradient>
  </defs>
  <sodipodi:namedview
     id="base"
     pagecolor="#ffffff"
     bordercolor="#666666"
     borderopacity="1.0"
     inkscape:pageopacity="0.0"
     inkscape:pageshadow="2"
     inkscape:zoom="1"
     inkscape:cx="375"
     inkscape:cy="74.594453"
     inkscape:document-units="px"
     inkscape:current-layer="layer1"
     showgrid="false"
     inkscape:window-width="1366"
     inkscape:window-height="706"
     inkscape:window-x="-8"
     inkscape:window-y="-8"
     inkscape:window-maximized="1" />
  <metadata
     id="metadata7">
    <rdf:RDF>
      <cc:Work
         rdf:about="">
        <dc:format>image/svg+xml</dc:format>
        <dc:type
           rdf:resource="http://purl.org/dc/dcmitype/StillImage" />
        <dc:title></dc:title>
      </cc:Work>
    </rdf:RDF>
  </metadata>
  <g
     inkscape:label="Layer 1"
     inkscape:groupmode="layer"
     id="layer1"
     transform="translate(0,-952.36218)">
    <text
       xml:space="preserve"
       style="font-size:16px;font-style:normal;font-variant:normal;font-weight:normal;font-stretch:normal;line-height:125%;letter-spacing:0px;word-spacing:0px;fill:#000000;fill-opacity:1;stroke:none;font-family:Gill Sans MT;-inkscape-font-specification:Gill Sans MT"
       x="58.57143"
       y="61.42857"
       id="text17778"
       sodipodi:linespacing="125%"
       transform="translate(0,802.36218)"><tspan
         sodipodi:role="line"
         id="tspan17780"
         x="58.57143"
         y="61.42857" /></text>
    <g
       transform="matrix(0.03068311,0,0,0.03929018,-212.67268,410.90306)"
       style="fill-rule:evenodd"
       id="Layer 1">
      <path
         id="path13"
         d="m 12395,14600 509,0 0,85 -35,0 c -21,0 -39,2 -56,7 -10,3 -18,8 -25,16 -6,7 -9,15 -9,21 0,16 13,39 38,70 l 144,182 169,-182 c 32,-33 47,-59 47,-76 0,-12 -6,-21 -16,-28 -11,-7 -34,-10 -70,-10 l -38,0 0,-85 431,0 0,85 c -42,2 -79,11 -109,26 -31,16 -68,45 -109,88 l -232,241 289,328 11,15 c 28,36 60,65 95,88 19,12 50,19 91,20 l 0,85 -497,0 0,-85 43,0 c 32,0 53,-2 62,-6 14,-7 22,-18 22,-34 0,-15 -17,-43 -49,-83 l -184,-225 -205,225 -20,25 -11,12 c -17,18 -26,34 -26,48 0,13 5,23 16,29 10,6 34,9 70,9 l 41,0 0,85 -426,0 0,-85 c 33,-1 59,-4 78,-11 18,-6 37,-16 54,-29 31,-25 52,-44 66,-58 l 296,-305 -252,-289 c -31,-36 -56,-61 -75,-75 -18,-14 -37,-25 -54,-30 -18,-6 -42,-9 -74,-9 l 0,-85 z m -1425,0 383,-15 0,651 c 0,57 8,103 24,137 15,33 40,59 72,78 33,18 71,28 115,28 54,0 115,-15 184,-44 68,-29 136,-72 204,-129 l 0,-471 c 0,-50 -3,-83 -11,-99 -7,-15 -21,-28 -39,-37 -19,-9 -49,-14 -89,-14 l -74,0 0,-85 383,-15 0,754 c 0,49 4,82 12,101 9,18 21,31 36,39 16,8 48,12 96,12 l 31,0 0,85 -335,17 0,-187 c -93,74 -173,124 -242,152 -69,28 -139,42 -210,42 -52,0 -98,-7 -137,-21 -38,-14 -73,-36 -102,-64 -29,-28 -52,-62 -67,-102 -16,-40 -23,-82 -23,-127 l 0,-461 c 0,-41 -4,-69 -11,-86 -8,-16 -20,-30 -37,-40 -17,-9 -41,-14 -71,-14 l -92,0 0,-85 z m -1238,146 0,-85 c 60,-7 105,-15 135,-25 29,-9 72,-29 128,-60 l 73,0 0,192 c 89,-75 165,-126 228,-152 63,-27 127,-40 191,-40 56,0 105,9 147,27 43,19 78,45 104,76 26,31 44,68 53,108 5,25 8,63 8,113 l 0,445 c 0,53 4,88 12,103 7,15 20,26 37,33 16,6 58,10 124,10 l 0,85 -521,0 0,-85 29,0 c 48,0 81,-5 99,-13 17,-9 30,-22 38,-39 7,-16 11,-51 11,-103 l 0,-372 c 0,-77 -6,-130 -19,-160 -12,-29 -33,-54 -63,-72 -30,-18 -68,-28 -114,-28 -55,0 -113,14 -175,42 -62,28 -122,69 -180,124 l 0,466 c 0,52 4,88 11,105 8,18 22,31 38,40 12,6 45,10 98,10 l 29,0 0,85 -521,0 0,-85 25,0 c 51,0 85,-5 103,-13 18,-8 31,-24 38,-45 4,-10 6,-48 6,-111 l 0,-576 -172,0 z m -2252,-581 547,0 0,86 -50,0 c -39,0 -67,4 -83,11 -16,8 -28,18 -35,33 -8,14 -11,39 -11,76 l 0,983 c 0,45 1,72 5,81 4,12 13,21 26,27 9,4 37,6 82,6 l 76,0 c 87,0 162,-13 226,-38 64,-26 120,-62 166,-111 46,-48 91,-120 134,-215 l 91,30 -158,442 -1016,0 0,-85 45,0 c 43,0 72,-4 87,-11 15,-8 26,-20 34,-37 8,-17 12,-47 12,-89 l 0,-959 c 0,-49 -3,-81 -11,-98 -7,-16 -18,-28 -32,-35 -14,-7 -44,-11 -90,-11 l -45,0 0,-86 z m 1446,1378 c -51,21 -113,32 -187,33 289,-121 -230,-1058 601,-1476 -67,393 199,528 176,852 -17,243 11,415 130,615 -240,-97 -447,-102 -720,-24 z m 74,-41 c 229,-144 404,-138 633,53 -211,-202 -173,-486 -170,-604 11,-365 -270,-450 -128,-845 -361,196 33,1126 -335,1396 z"
         class="fil0"
         inkscape:connector-curvature="0" />
    </g>
  </g>
</svg>
